<svg id="Ebene_1" data-name="Ebene 1" xmlns="http://www.w3.org/2000/svg" viewBox="0 0 2116.36 800"><defs><style>.cls-1{fill:#d4021d;}.cls-2{fill:#008ebd;}</style></defs><g id="Ebene_2" data-name="Ebene 2"><g id="Ebene_1-2" data-name="Ebene 1-2"><path class="cls-1" d="M337.34,254a194.3,194.3,0,0,0-49.85,31.63c-30.93,27.43-40,60.69-34.19,103.15a179.59,179.59,0,0,0,41.82,89.57l.35.41,36.11-191.21c1.86-10,5.82-33.55,5.82-33.55M482,285.62c0-18.7-7.63-38.33-30.17-38.33-25.86,0-49.86,29.12-58.24,75.25L385,372.86a44.87,44.87,0,0,0,31.62,11.65c36.93,0,65.64-52.42,65.64-99m72-20.38a3.6,3.6,0,0,0-.58-.65v.3a137.85,137.85,0,0,1,.87,15.6c0,81.55-54.16,156.21-135.65,156.21A93.46,93.46,0,0,1,375.26,427l-.82-.52-19.22,99,.76.35a243.48,243.48,0,0,0,69.37,24.29c44.15,6.29,74.67-3.67,99.59-32.85,25.11-28.25,43.28-74.38,52-130,6.69-54.05.87-94.41-23-122.08"/><path class="cls-2" d="M1840,295.63a19.51,19.51,0,1,1-19,20c0-.17,0-.34,0-.51A19.28,19.28,0,0,1,1840,295.63Zm0,34.95a14.68,14.68,0,0,0,14.51-14.84c0-.12,0-.24,0-.36a14.39,14.39,0,1,0-28.77,0h0a14.62,14.62,0,0,0,14.26,15h0Zm-6.64-25h8.32a5.82,5.82,0,0,1,6.11,5.52c0,.1,0,.2,0,.3a5.14,5.14,0,0,1-3.44,5.07h0a4.91,4.91,0,0,1,.7,1.16l3.67,7h-5l-3.32-7.16h-2.5v7.34h-4.54Zm7,9.08a2.62,2.62,0,0,0,2.81-2.42,2.68,2.68,0,0,0,0-.49,2.62,2.62,0,0,0-2.31-2.9,2.66,2.66,0,0,0-.49,0h-2.5v5.82Z"/><path class="cls-2" d="M703.23,337.22c32,0,48,16.83,48,47.24S734.1,433.67,706,433.67a46.73,46.73,0,0,1-14.27-2.21v45.83H663.33v-134A168.9,168.9,0,0,1,703.23,337.22Zm.58,73.15c12.06,0,18.87-9,18.87-24.63s-6.23-25.8-20.44-25.8a32.47,32.47,0,0,0-10.66,1.8v46.6A34.86,34.86,0,0,0,703.81,410.37Z"/><path class="cls-2" d="M764.21,295.34h27.95V430.93H764.21Z"/><path class="cls-2" d="M884.54,425.75a82.52,82.52,0,0,1-34.95,7.63c-28.25,0-44.09-17.07-44.09-47.53s15.84-48.46,44.09-48.46c23.82,0,37.28,14.22,37.28,38.85a85.77,85.77,0,0,1-1.4,15.26H831.25c1.39,13.63,7.39,21,21.25,21a72,72,0,0,0,27.44-6.23l4.77,19.45Zm-21.32-51.49c0-10.83-5.82-16.6-14.62-16.6s-14.85,5.19-16.83,16.6Z"/><path class="cls-2" d="M958,337.8c18.64,0,29.12,10.43,29.12,33.43v59.7H958.74V374.67c0-7.8-3.61-12-11.24-12a35.62,35.62,0,0,0-19,8.39v59.87H900.26V339.61h27V348A56.72,56.72,0,0,1,958,337.8Z"/><path class="cls-2" d="M1042.2,433.67c-22.83,0-34-10.66-34-34.95V360.23H995V339.61h13.22V311.36l28.25-6.58v34.65H1059v20.62h-22.59V397.5c0,8.62,3.55,12.47,11,12.47a62.1,62.1,0,0,0,12-1.63l4,21.84A74.85,74.85,0,0,1,1042.2,433.67Z"/><path class="cls-2" d="M1129.74,431.57c-13.22,32.85-31.22,41.65-55.68,43.63l-5-21.78c16.83-1.81,25.28-6.82,34.66-25.28l-37.86-88.53h31.27L1118,394.47l19-54.86h29.12Z"/><path class="cls-2" d="M1200.27,348.23a55.87,55.87,0,0,1,30.46-10.43c10.6,0,19.22,3.38,23.83,12.23,15-10,24.28-12.23,33.25-12.23,16.25,0,28.08,8.39,28.08,32v61.09h-28.48V375.08c0-7.63-2.8-12.23-10.37-12.23a31.66,31.66,0,0,0-18.47,8.38v59.7h-28.42V375.08c0-7.63-2.79-12.23-10.42-12.23a33.91,33.91,0,0,0-18.41,8.21v59.87h-28.25V339.61h26.85V348Z"/><path class="cls-2" d="M1382.4,430.93c-.82-2.38-1.57-4.6-2.56-8a41.61,41.61,0,0,1-25.46,10.72,25.85,25.85,0,0,1-27.61-24,24.33,24.33,0,0,1,0-2.7c0-22.25,21.67-30.06,49.51-31.46v-5c0-7.81-3.62-11.65-13-11.65a78.82,78.82,0,0,0-26.44,5.82l-5.83-19.63a108.57,108.57,0,0,1,36.23-6.81c24.64,0,36.87,10.6,36.87,32.85V404a237.31,237.31,0,0,0,1.8,27.43h-23.64Zm-6.17-39.83c-13.23.58-21.44,3.61-21.44,12.81,0,5.42,2.8,8.79,7.4,8.79a23.31,23.31,0,0,0,14.21-6.81V391.27Z"/><path class="cls-2" d="M1447.75,383.06v47.87H1419.5V339.61h28v15c12.23-14,22.42-19,38.09-15.6l-3,26.85C1470.75,363.78,1459.75,364.65,1447.75,383.06Z"/><path class="cls-2" d="M1532.67,397.68l-10.43,11.65v21.43H1494V295.34h28.25v79.51l28.25-35h33.66l-34.07,38.44,35.7,52.88h-32.67Z"/><path class="cls-2" d="M1661.5,425.75a82.51,82.51,0,0,1-35.29,7.92c-28.25,0-44.09-17.06-44.09-47.53s15.84-48.45,44.09-48.45c23.82,0,37.27,14.21,37.27,38.84a85.77,85.77,0,0,1-1.4,15.26H1608c1.39,13.63,7.39,21,21.25,21a72,72,0,0,0,27.44-6.23l4.77,19.45Zm-21.43-51.49c0-10.83-5.83-16.6-14.62-16.6s-14.85,5.19-16.83,16.6Z"/><path class="cls-2" d="M1718,433.67c-22.84,0-34.08-10.66-34.08-34.95V360.23H1670.7V339.61h13.22V311.36l28.25-6.58v34.65h22.66v20.62h-22.66V397.5c0,8.62,3.61,12.47,11.07,12.47a62.31,62.31,0,0,0,12-1.63l4,21.84A75.55,75.55,0,0,1,1718,433.67Z"/><path class="cls-2" d="M1780.08,412.3c6.64,0,10.43-1.81,10.43-6.59,0-14.44-40.42-10.19-40.42-40.07,0-19.63,17-28,38.21-28a87.8,87.8,0,0,1,28.07,5L1810,363.25a67.53,67.53,0,0,0-22-5.41c-6.41,0-10.66,2.21-10.66,6.58,0,12.87,40.77,8.62,40.77,40.3,0,20.8-17.47,28.25-38.27,28.25a81.4,81.4,0,0,1-33.08-6.64l6.81-21A74.31,74.31,0,0,0,1780.08,412.3Z"/><path class="cls-1" d="M1389.91,488.3,1375.41,522h-6.29l-14.27-33.32L1352.46,522h-8.79l4.13-52.42h8.74L1372.67,508l16.49-38.38h8.62l4,52.42h-9.55Z"/><path class="cls-1" d="M1431.27,518.3A18.81,18.81,0,0,1,1420,523a10.44,10.44,0,0,1-11.22-9.57,11.77,11.77,0,0,1,0-1.33c0-9.37,8.91-12.69,21.44-13.1v-3c0-4-1.87-5.83-6.35-5.83a33.84,33.84,0,0,0-11.13,2.45l-2-6.58a40.66,40.66,0,0,1,14.32-2.91c9.67,0,14.39,4.31,14.39,13.1V510.9a84.12,84.12,0,0,0,.87,11.65h-8A25,25,0,0,1,1431.27,518.3Zm-1.11-13.63c-7.51.29-11.94,1.8-11.94,6.64a4.11,4.11,0,0,0,4.25,4.6,13,13,0,0,0,7.75-3.79v-7.45Z"/><path class="cls-1" d="M1464.29,506.47,1459.4,512V522h-9.67V464.77h9.67v35.41l13.74-16.48h11.65l-14.39,16.19L1485.78,522h-11.12Z"/><path class="cls-1" d="M1519.21,519.93a33.25,33.25,0,0,1-14,3.09c-11.64,0-18-7.17-18-20s6.46-20.15,17.82-20.15c9.67,0,15,5.82,15,16.19a37.16,37.16,0,0,1-.47,5.47h-23.3c.47,7.4,3.56,11.65,10.26,11.65a28.27,28.27,0,0,0,11.29-2.62l1.69,6.7Zm-14.56-30.23c-4.72,0-7.57,3-8.44,8.74h15.72C1511.93,492.85,1509.25,489.7,1504.65,489.7Z"/><path class="cls-1" d="M1546.12,471.41a5.41,5.41,0,0,1,5-5.82,6,6,0,0,1,.85,0,5.47,5.47,0,0,1,5.82,5.1,4.33,4.33,0,0,1,0,.72,5.43,5.43,0,0,1-5,5.83,5.89,5.89,0,0,1-.84,0,5.31,5.31,0,0,1-5.83-4.72A5.15,5.15,0,0,1,1546.12,471.41Zm.93,12.29h9.67V522h-9.67Z"/><path class="cls-1" d="M1583.16,523c-9,0-13.16-4.37-13.16-13.69V490.75h-5.82V483.7H1570V471.53l9.55-2.27V483.7h10.14v7.05h-10.08V509c0,4.08,1.57,6.17,5.3,6.17a17.66,17.66,0,0,0,5.48-.93l1.39,7.51A29.28,29.28,0,0,1,1583.16,523Z"/><path class="cls-1" d="M1636.4,523.42c-4.84,12.35-11.65,16.43-22.25,17l-1.57-7.75a15.37,15.37,0,0,0,15.26-11.3l-16-37.91h10.6l10.19,26.5,9.14-26.5h9.91Z"/><path class="cls-1" d="M1690.8,502.16c0,13-7.17,20.8-19.11,20.8s-18.34-7.46-18.34-20a18.1,18.1,0,0,1,15.91-20.07,17.43,17.43,0,0,1,3.31-.08C1684,482.83,1690.8,490,1690.8,502.16Zm-9.79.41c0-8-3.14-12.4-9-12.4s-8.85,4.36-8.85,12.46,3.2,12.93,9.09,12.93S1681,511,1681,502.57Z"/><path class="cls-1" d="M1710.25,522.78c-7.63,0-11.65-4.31-11.65-13.51V483.7h9.15v24.52c0,4,1.74,6.18,5.82,6.18a18.11,18.11,0,0,0,9.73-4.31V483.7H1733V522h-9.2v-4A24.75,24.75,0,0,1,1710.25,522.78Z"/><path class="cls-1" d="M1752.94,500.83V522h-9.67V483.7h9.5v7.22c4.77-5.82,9.55-9.14,16.31-7.45l-1.11,9C1762.38,491.33,1757.66,493.25,1752.94,500.83Z"/><path class="cls-1" d="M1785.5,515.85c3.55,0,5.82-1.16,5.82-4,0-7.4-17.88-5.36-17.88-17.94,0-7.74,6.7-11.06,15.09-11.06a34.21,34.21,0,0,1,11.12,1.92l-2.15,7.1a26,26,0,0,0-9-2.09c-3.44,0-5.82,1.16-5.82,3.72,0,6.76,17.88,4.72,17.88,18,0,8.39-7,11.3-15.2,11.3a34.48,34.48,0,0,1-13.34-2.62l2.33-7.16A31.57,31.57,0,0,0,1785.5,515.85Z"/><path class="cls-1" d="M1807.52,516.78a5.82,5.82,0,1,1,5.82,5.83A5.82,5.82,0,0,1,1807.52,516.78Z"/></g></g></svg>