<?xml version="1.0" encoding="UTF-8"?><svg id="Logo" xmlns="http://www.w3.org/2000/svg" viewBox="0 0 987.54 318.62"><defs><style>.cls-1{fill:#d4021d;}.cls-2{fill:#04485b;}.cls-3{fill:#008ebd;}</style></defs><path class="cls-1" d="M132.68,101.11c-7.25,3.17-13.97,7.44-19.92,12.64-12.36,10.96-15.97,24.25-13.66,41.22,2.11,13.26,7.9,25.66,16.71,35.8l.14,.16,14.43-76.42c.74-3.98,2.33-13.41,2.33-13.41m57.8,12.64c0-7.47-3.05-15.32-12.06-15.32-10.33,0-19.92,11.64-23.28,30.07l-3.44,20.11c3.45,3.13,7.98,4.8,12.64,4.66,14.76,0,26.23-20.95,26.23-39.57m28.77-8.15c-.07-.09-.14-.18-.23-.26v.12c.23,2.07,.35,4.15,.35,6.24,0,32.59-21.65,62.43-54.21,62.43-6.03,.15-12.02-1.16-17.43-3.82l-.33-.21-7.68,39.57,.3,.14c8.7,4.62,18.04,7.89,27.72,9.71,17.64,2.51,29.84-1.47,39.8-13.13,10.03-11.29,17.29-29.72,20.79-51.95,2.68-21.6,.35-37.73-9.17-48.79"/><path class="cls-3" d="M279.06,134.37c12.8,0,19.2,6.73,19.2,18.88s-6.87,19.67-18.16,19.67c-1.94,0-3.86-.3-5.7-.88v18.32h-11.29v-53.54c5.2-1.45,10.55-2.27,15.94-2.44Zm.23,29.24c4.82,0,7.54-3.58,7.54-9.85s-2.49-10.31-8.17-10.31c-1.45,0-2.89,.24-4.26,.72v18.62c1.57,.56,3.22,.84,4.89,.81Z"/><path class="cls-3" d="M303.27,117.63h11.29v54.19h-11.29v-54.19Z"/><path class="cls-3" d="M351.52,169.75c-4.38,2.03-9.14,3.07-13.97,3.05-11.29,0-17.62-6.82-17.62-18.99s6.33-19.37,17.62-19.37c9.52,0,14.9,5.68,14.9,15.53,0,2.05-.19,4.09-.56,6.1h-21.67c.56,5.45,2.96,8.4,8.5,8.4,3.78-.1,7.51-.95,10.96-2.49l1.91,7.77h-.07Zm-8.57-20.58c0-4.33-2.33-6.66-5.84-6.66s-5.94,2.09-6.73,6.66h12.57Z"/><path class="cls-3" d="M380.89,134.6c7.45,0,11.64,4.17,11.64,13.36v23.86h-11.38v-22.48c0-3.12-1.44-4.79-4.47-4.79-2.81,.33-5.47,1.5-7.61,3.35v23.93h-11.29v-36.5h10.8v3.35c3.62-2.53,7.9-3.94,12.31-4.07Z"/><path class="cls-3" d="M414.53,172.92c-9.12,0-13.59-4.26-13.59-13.97v-15.39h-5.28v-8.24h5.38v-11.29l11.29-2.63v13.85h9.03v8.24h-9.03v14.97c0,3.44,1.44,4.98,4.4,4.98,1.62-.06,3.22-.28,4.79-.65l1.61,8.73c-2.78,.87-5.67,1.34-8.59,1.4Z"/><path class="cls-3" d="M449.54,172.08c-5.28,13.13-12.5,16.64-22.28,17.43l-2-8.71c6.73-.72,10.1-2.72,13.97-10.1l-15.13-35.38h12.5l8.33,21.93,7.31-21.93h11.64l-14.34,36.75Z"/><path class="cls-2" d="M858.42,117.75c4.3-.12,7.89,3.28,8,7.59,.12,4.3-3.28,7.89-7.59,8-4.3,.12-7.89-3.28-8-7.59,0-.07,0-.14,0-.21-.05-4.25,3.34-7.73,7.59-7.8Zm0,13.97c3.23-.04,5.81-2.68,5.78-5.91,0-.06,0-.11,0-.17,.2-3.17-2.2-5.9-5.37-6.1-3.17-.2-5.9,2.2-6.1,5.37-.02,.24-.02,.49,0,.73-.08,3.23,2.47,5.9,5.7,5.98h0v.09Zm-2.65-10.01h3.24c1.28-.12,2.41,.83,2.53,2.11,0,.07,0,.15,0,.22,.04,.9-.52,1.73-1.37,2.03h0l.28,.47,1.47,2.79h-1.91l-1.33-2.86h-1v2.93h-1.79l-.12-7.68Zm2.79,3.63c.59,.04,1.1-.4,1.14-.99,0-.06,0-.11,0-.17,.07-.57-.35-1.09-.92-1.16-.06,0-.13,0-.2,0h-.91v2.33h.88Z"/><g><path class="cls-2" d="M516.66,146.42c0,18.36-9.01,27.03-27.8,27.03h-18.11v-52.62h18.7c18.02,0,27.2,8.25,27.2,25.59Zm-12.5,.51c0-11.14-4.76-16.41-14.88-16.41h-6.29v33.24h6.63c9.95,0,14.54-5.36,14.54-16.83Z"/><path class="cls-2" d="M553.81,171.24c-4.5,2.04-9.18,3.23-14.88,3.23-11.99,0-18.7-7.23-18.7-20.15s6.71-20.57,18.7-20.57c10.12,0,15.81,6.04,15.81,16.49,0,2.12-.17,4-.6,6.46h-22.95c.59,5.78,3.15,8.93,9.01,8.93,4,0,7.57-1.02,11.65-2.64l2.04,8.25h-.08Zm-9.1-21.85c0-4.59-2.38-7.06-6.21-7.06s-6.29,2.21-7.14,7.06h13.35Z"/><path class="cls-2" d="M582.2,173.45h-11.39l-15.98-38.76h13.35l8.84,24.99,7.91-24.99h12.75l-15.47,38.76Z"/><path class="cls-2" d="M631.15,171.24c-4.5,2.04-9.18,3.23-14.88,3.23-11.99,0-18.7-7.23-18.7-20.15s6.71-20.57,18.7-20.57c10.12,0,15.81,6.04,15.81,16.49,0,2.12-.17,4-.6,6.46h-22.95c.59,5.78,3.15,8.93,9.01,8.93,4,0,7.57-1.02,11.65-2.64l2.04,8.25h-.08Zm-9.1-21.85c0-4.59-2.38-7.06-6.21-7.06s-6.29,2.21-7.14,7.06h13.35Z"/><path class="cls-2" d="M638.89,115.9h11.99v57.55h-11.99v-57.55Z"/><path class="cls-2" d="M697.37,153.3c0,13.18-7.65,21.17-20.23,21.17s-19.38-7.65-19.38-20.32,7.65-20.4,20.32-20.4,19.3,7.31,19.3,19.55Zm-12.24,.59c0-7.23-2.63-10.97-7.65-10.97s-7.4,3.74-7.4,10.8c0,7.48,2.63,11.48,7.74,11.48,4.76,0,7.31-3.91,7.31-11.31Z"/><path class="cls-2" d="M721.17,133.67c13.6,0,20.4,7.14,20.4,20.06s-7.31,20.74-19.3,20.74c-2.72,0-4.25-.43-6.04-.94v19.47h-11.99v-56.79c4.51-1.19,11.14-2.55,16.92-2.55Zm.25,31.11c5.1,0,7.99-3.83,7.99-10.46,0-6.97-2.63-10.97-8.67-10.97-1.19,0-2.89,.17-4.5,.77v19.72c1.45,.59,3.49,.93,5.19,.93Z"/><path class="cls-2" d="M779.14,171.24c-4.5,2.04-9.18,3.23-14.88,3.23-11.99,0-18.7-7.23-18.7-20.15s6.71-20.57,18.7-20.57c10.12,0,15.81,6.04,15.81,16.49,0,2.12-.17,4-.6,6.46h-22.95c.59,5.78,3.15,8.93,9.01,8.93,4,0,7.57-1.02,11.65-2.64l2.04,8.25h-.08Zm-9.1-21.85c0-4.59-2.38-7.06-6.21-7.06s-6.29,2.21-7.14,7.06h13.35Z"/><path class="cls-2" d="M798.85,153.13v20.32h-11.99v-38.76h11.9v6.38c5.19-5.95,9.52-8.08,16.15-6.63l-1.28,11.39c-5.02-.94-9.69-.51-14.79,7.31Z"/><path class="cls-2" d="M829.62,165.55c2.81,0,4.42-.77,4.42-2.81,0-6.12-17.17-4.33-17.17-17,0-8.33,7.23-11.9,16.24-11.9,4.08,0,8.5,.94,11.9,2.12l-2.72,8.76c-2.21-.85-6.12-2.29-9.35-2.29-2.72,0-4.51,.93-4.51,2.8,0,5.44,17.26,3.66,17.26,17.09,0,8.84-7.48,11.99-16.24,11.99-4.76,0-10.03-.93-14.03-2.8l2.89-8.93c3.06,1.36,7.65,2.98,11.31,2.98Z"/></g></svg>