<svg width="220" height="42" viewBox="0 0 220 42" fill="none" xmlns="http://www.w3.org/2000/svg">
    <path d="M11.7175 1.37356C9.00735 2.638 6.69576 4.0605 4.86243 5.64104C0.63779 9.35534 -0.557862 13.8599 0.23924 19.6289C0.956631 24.2915 3.02909 28.401 5.97837 31.7991L6.05808 31.8782L11.0001 5.95715C11.1595 4.53466 11.7175 1.37356 11.7175 1.37356ZM31.5653 5.64104C31.5653 3.11217 30.5291 0.425232 27.4204 0.425232C23.9132 0.425232 20.5653 4.3766 19.4494 10.6198L18.2537 17.4161C19.29 18.3645 20.7247 18.9967 22.5581 18.9967C27.5798 18.9967 31.5653 11.8842 31.5653 5.64104ZM41.3697 2.87508C41.29 2.79606 41.29 2.79606 41.29 2.79606C41.29 2.79606 41.29 2.79606 41.3697 2.87508C41.3697 3.5073 41.4494 4.21855 41.4494 4.9298C41.4494 15.9936 34.0363 26.1092 22.8769 26.1092C20.2465 26.1092 18.0146 25.4769 16.8987 24.8447L16.8189 24.7657L14.1885 38.2004L14.2682 38.2794C17.1378 39.7809 20.3262 40.8873 23.7537 41.5195C29.8117 42.3888 33.9566 41.0453 37.3842 37.094C40.8117 33.3007 43.2827 26.9785 44.4784 19.4708C45.4349 12.1213 44.6378 6.58937 41.3697 2.87508Z" fill="white"/>
    <path d="M217.37 6.98453C218.804 6.98453 220 8.16994 220 9.59243C220 11.094 218.804 12.2794 217.37 12.2794C215.935 12.2794 214.739 11.094 214.739 9.59243C214.739 8.16994 215.935 6.98453 217.37 6.98453ZM217.37 11.7262C218.486 11.7262 219.362 10.7778 219.362 9.67146C219.362 8.48605 218.486 7.61675 217.37 7.61675C216.254 7.61675 215.457 8.56508 215.457 9.67146C215.457 10.7778 216.254 11.7262 217.37 11.7262ZM216.493 8.32799H217.609C218.167 8.32799 218.486 8.6441 218.486 9.1973C218.486 9.59243 218.167 9.82952 218.007 9.90854C218.007 9.90854 218.007 9.90854 218.087 10.0666L218.565 11.0149H217.848L217.37 10.0666H217.051V11.0149H216.413V8.32799H216.493ZM217.449 9.51341C217.689 9.51341 217.848 9.35535 217.848 9.11827C217.848 8.88119 217.689 8.72313 217.449 8.72313H217.131V9.51341H217.449Z" fill="white"/>
    <path d="M61.7752 12.5954C66.1592 12.5954 68.3911 14.8872 68.3911 18.9966C68.3911 23.1851 65.9998 25.6349 62.1737 25.6349C61.2969 25.6349 60.8186 25.4769 60.2607 25.3188V31.562H56.4346V13.3857C57.7896 13.0696 59.9418 12.5954 61.7752 12.5954ZM61.8549 22.5529C63.5288 22.5529 64.4056 21.3675 64.4056 19.2337C64.4056 17.021 63.5288 15.7565 61.6157 15.7565C61.2172 15.7565 60.6592 15.8355 60.1809 15.9936V22.3158C60.6592 22.4738 61.2969 22.5529 61.8549 22.5529Z" fill="white"/>
    <path d="M70.1445 6.90546H73.9706V25.3189H70.1445V6.90546Z" fill="white"/>
    <path d="M86.6443 24.6076C85.2095 25.2398 83.695 25.6349 81.8617 25.6349C78.0356 25.6349 75.8037 23.3431 75.8037 19.1547C75.8037 14.9662 77.9559 12.5954 81.8617 12.5954C85.1298 12.5954 86.9631 14.4921 86.9631 17.8903C86.9631 18.6015 86.8834 19.1547 86.8037 19.945H79.3907C79.5501 21.7626 80.4269 22.79 82.2602 22.79C83.5356 22.79 84.7312 22.4738 86.0066 21.9207L86.6443 24.6076ZM83.695 17.6532C83.695 16.1516 82.8979 15.3614 81.7023 15.3614C80.4269 15.3614 79.7095 16.0726 79.3907 17.6532H83.695Z" fill="white"/>
    <path d="M96.6882 12.6745C99.2389 12.6745 100.674 14.097 100.674 17.1791V25.2399H96.7679V17.5742C96.7679 16.5468 96.2896 15.9146 95.2534 15.9146C94.4563 15.9146 93.5795 16.3888 92.623 17.021V25.1608H88.7969V12.9116H92.4635V14.018C93.8983 13.2277 95.2534 12.6745 96.6882 12.6745Z" fill="white"/>
    <path d="M108.166 25.635C105.058 25.635 103.543 24.2125 103.543 20.8933V15.6775H101.71V12.9115H103.543V9.11822L107.369 8.24892V12.9906H110.478V15.7565H107.369V20.8143C107.369 21.9997 107.848 22.4739 108.884 22.4739C109.522 22.4739 110.079 22.3158 110.558 22.2368L111.116 25.1608C110.319 25.4769 109.362 25.635 108.166 25.635Z" fill="white"/>
    <path d="M120.203 25.3979C118.369 29.8234 115.898 31.0879 112.551 31.3249L111.833 28.4009C114.145 28.1638 115.261 27.4526 116.616 25.0027L111.435 12.9906H115.739L118.608 20.4191L121.159 12.9906H125.145L120.203 25.3979Z" fill="white"/>
    <path d="M129.848 14.097C131.283 13.1487 132.638 12.6745 133.993 12.6745C135.428 12.6745 136.623 13.1487 137.261 14.3341C139.333 12.9906 140.609 12.6745 141.804 12.6745C144.036 12.6745 145.631 13.7809 145.631 17.021V25.3189H141.725V17.7322C141.725 16.7049 141.326 16.0727 140.29 16.0727C139.652 16.0727 138.696 16.3888 137.739 17.1791V25.2399H133.913V17.6532C133.913 16.6259 133.515 15.9936 132.478 15.9936C131.761 15.9936 130.884 16.3888 129.928 17.1V25.2399H126.102V12.9116H129.768L129.848 14.097Z" fill="white"/>
    <path d="M154.717 25.3188C154.637 25.0027 154.478 24.6866 154.398 24.2124C153.362 25.0027 152.326 25.6349 150.891 25.6349C148.739 25.6349 147.145 24.2124 147.145 21.9997C147.145 18.9966 150.094 17.8903 153.92 17.7322V17.0209C153.92 15.9936 153.442 15.4404 152.166 15.4404C151.289 15.4404 150.173 15.5985 148.579 16.2307L147.782 13.5437C149.536 12.9115 151.21 12.5954 152.724 12.5954C156.072 12.5954 157.746 14.0179 157.746 17.0209V21.4465C157.746 22.948 157.826 23.8963 157.985 25.1608H154.717V25.3188ZM153.92 19.945C152.087 20.024 150.971 20.4191 150.971 21.6836C150.971 22.3948 151.369 22.869 152.007 22.869C152.645 22.869 153.202 22.5529 153.92 21.9207V19.945Z" fill="white"/>
    <path d="M163.725 18.8387V25.3189H159.898V12.9116H163.725V14.9663C165.398 13.0697 166.833 12.3584 168.906 12.8326L168.507 16.4678C166.833 16.2308 165.319 16.3098 163.725 18.8387Z" fill="white"/>
    <path d="M175.282 20.8143L173.848 22.3948V25.3189H170.021V6.90546H173.848V17.7322L177.674 12.9116H182.297L177.674 18.1274L182.536 25.3189H178.072L175.282 20.8143Z" fill="white"/>
    <path d="M192.978 24.6076C191.544 25.2398 190.029 25.6349 188.196 25.6349C184.37 25.6349 182.138 23.3431 182.138 19.1547C182.138 14.9662 184.29 12.5954 188.196 12.5954C191.464 12.5954 193.297 14.4921 193.297 17.8903C193.297 18.6015 193.217 19.1547 193.138 19.945H185.725C185.884 21.7626 186.761 22.79 188.594 22.79C189.87 22.79 191.065 22.4738 192.341 21.9207L192.978 24.6076ZM190.029 17.6532C190.029 16.1516 189.232 15.3614 188.036 15.3614C186.761 15.3614 186.044 16.0726 185.725 17.6532H190.029Z" fill="white"/>
    <path d="M200.709 25.635C197.601 25.635 196.086 24.2125 196.086 20.8933V15.6775H194.253V12.9115H196.086V9.11822L199.912 8.24892V12.9906H203.021V15.7565H199.912V20.8143C199.912 21.9997 200.391 22.4739 201.427 22.4739C202.065 22.4739 202.623 22.3158 203.101 22.2368L203.659 25.1608C202.782 25.4769 201.905 25.635 200.709 25.635Z" fill="white"/>
    <path d="M209.159 22.79C210.036 22.79 210.594 22.5529 210.594 21.9207C210.594 19.945 205.093 20.4982 205.093 16.4678C205.093 13.7809 207.405 12.6745 210.354 12.6745C211.709 12.6745 213.065 12.9906 214.18 13.3857L213.304 16.1517C212.586 15.9146 211.311 15.4405 210.275 15.4405C209.398 15.4405 208.84 15.7566 208.84 16.3098C208.84 18.0484 214.42 17.4952 214.42 21.7627C214.42 24.6076 212.028 25.556 209.159 25.556C207.644 25.556 205.891 25.2399 204.615 24.6867L205.572 21.8417C206.528 22.3158 207.963 22.79 209.159 22.79Z" fill="white"/>
    <path d="M155.754 33.1426L153.761 37.7262H152.884L150.891 33.2216L150.573 37.7262H149.377L149.935 30.6137H151.131L153.362 35.8295L155.594 30.6137H156.79L157.348 37.7262H156.073L155.754 33.1426Z" fill="white"/>
    <path d="M161.413 37.173C160.935 37.4891 160.536 37.8052 159.898 37.8052C159.021 37.8052 158.384 37.252 158.384 36.3037C158.384 35.0393 159.579 34.5651 161.333 34.5651V34.17C161.333 33.6168 161.094 33.3797 160.456 33.3797C160.058 33.3797 159.579 33.4587 158.942 33.6958L158.623 32.8265C159.261 32.5894 159.978 32.4314 160.616 32.4314C161.971 32.4314 162.608 32.9846 162.608 34.17V36.1456C162.608 36.7779 162.688 37.173 162.688 37.6472H161.572C161.492 37.5681 161.492 37.4101 161.413 37.173ZM161.253 35.3554C160.217 35.3554 159.659 35.5925 159.659 36.2247C159.659 36.6198 159.898 36.8569 160.217 36.8569C160.536 36.8569 160.935 36.6198 161.253 36.3037V35.3554Z" fill="white"/>
    <path d="M165.957 35.5925L165.319 36.3037V37.6472H163.964V29.9025H165.319V34.7232L167.232 32.5104H168.826L166.833 34.7232L168.906 37.7262H167.391L165.957 35.5925Z" fill="white"/>
    <path d="M173.449 37.4102C172.891 37.6472 172.254 37.8053 171.536 37.8053C169.942 37.8053 169.065 36.857 169.065 35.1184C169.065 33.3798 169.942 32.3524 171.536 32.3524C172.891 32.3524 173.609 33.1427 173.609 34.5652C173.609 34.8023 173.609 35.0393 173.529 35.2764H170.341C170.42 36.3038 170.819 36.7779 171.776 36.7779C172.334 36.7779 172.812 36.6199 173.29 36.3828L173.449 37.4102ZM171.457 33.3007C170.819 33.3007 170.42 33.6959 170.261 34.4861H172.413C172.493 33.7749 172.094 33.3007 171.457 33.3007Z" fill="white"/>
    <path d="M177.195 30.8508C177.195 30.3766 177.514 30.0605 177.992 30.0605C178.471 30.0605 178.79 30.3766 178.79 30.8508C178.79 31.325 178.471 31.6411 177.992 31.6411C177.434 31.5621 177.195 31.325 177.195 30.8508ZM177.275 32.5104H178.63V37.7262H177.275V32.5104Z" fill="white"/>
    <path d="M182.217 37.8052C181.022 37.8052 180.384 37.173 180.384 35.9086V33.3797H179.587V32.4314H180.384V30.7718L181.659 30.4557V32.4314H183.014V33.3797H181.739V35.8295C181.739 36.3827 181.978 36.6988 182.456 36.6988C182.775 36.6988 183.014 36.6198 183.174 36.5408L183.333 37.5681C183.094 37.7262 182.696 37.8052 182.217 37.8052Z" fill="white"/>
    <path d="M189.471 37.8843C188.833 39.5439 187.877 40.0971 186.442 40.1761L186.203 39.1487C187.239 39.0697 187.797 38.7536 188.275 37.6472L186.123 32.5104H187.558L188.993 36.0667L190.268 32.5104H191.623L189.471 37.8843Z" fill="white"/>
    <path d="M196.964 35.0393C196.964 36.7779 196.007 37.8843 194.333 37.8843C192.739 37.8843 191.862 36.8569 191.862 35.1973C191.862 33.4587 192.819 32.4314 194.493 32.4314C196.007 32.3523 196.964 33.3797 196.964 35.0393ZM195.609 35.0393C195.609 33.9329 195.21 33.3797 194.413 33.3797C193.616 33.3797 193.217 34.0119 193.217 35.0393C193.217 36.1456 193.696 36.7779 194.493 36.7779C195.21 36.8569 195.609 36.2247 195.609 35.0393Z" fill="white"/>
    <path d="M199.594 37.8053C198.558 37.8053 198 37.2521 198 35.9876V32.5104H199.275V35.8296C199.275 36.3828 199.515 36.6989 200.072 36.6989C200.471 36.6989 200.87 36.4618 201.428 36.1457V32.5895H202.783V37.8053H201.507V37.2521C200.79 37.5682 200.232 37.8053 199.594 37.8053Z" fill="white"/>
    <path d="M205.493 34.8022V37.6472H204.138V32.4314H205.413V33.3797C206.051 32.5894 206.688 32.1153 207.645 32.3523L207.485 33.6168C206.768 33.5377 206.13 33.7748 205.493 34.8022Z" fill="white"/>
    <path d="M209.957 36.857C210.435 36.857 210.754 36.6989 210.754 36.3038C210.754 35.2764 208.283 35.5925 208.283 33.8539C208.283 32.8266 209.16 32.3524 210.356 32.3524C210.913 32.3524 211.392 32.4314 211.87 32.5895L211.551 33.5378C211.232 33.3798 210.754 33.2217 210.276 33.2217C209.798 33.2217 209.479 33.3798 209.479 33.6959C209.479 34.6442 211.95 34.3281 211.95 36.1457C211.95 37.2521 210.993 37.6472 209.877 37.6472C209.24 37.6472 208.602 37.4892 208.044 37.3311L208.363 36.3828C208.841 36.6989 209.399 36.857 209.957 36.857Z" fill="white"/>
    <path d="M212.906 37.015C212.906 36.5408 213.225 36.2247 213.703 36.2247C214.182 36.2247 214.5 36.5408 214.5 37.015C214.5 37.4891 214.182 37.8052 213.703 37.8052C213.305 37.8052 212.906 37.4101 212.906 37.015Z" fill="white"/>
</svg>
