<svg width="154" height="154" viewBox="0 0 154 154" fill="none" xmlns="http://www.w3.org/2000/svg">
    <path d="M112.385 84.6924C117.769 84.6924 123.154 81.6154 125.462 77L153.154 27C155.462 21.6154 152.385 15.4616 146.231 15.4616H32.3848L25.4618 0.0769653H0.0771484V15.4616H15.4618L43.1541 73.9231L32.3848 92.3847C27.0002 102.385 33.9233 115.462 46.231 115.462H138.539V100.077H46.231L54.6925 84.6924H112.385ZM40.0771 30.8462H133.154L111.616 69.3077H57.7695L40.0771 30.8462ZM46.231 123.154C37.7695 123.154 30.8464 130.077 30.8464 138.539C30.8464 147 37.7695 153.923 46.231 153.923C54.6925 153.923 61.6156 147 61.6156 138.539C61.6156 130.077 54.6925 123.154 46.231 123.154ZM123.154 123.154C114.693 123.154 107.769 130.077 107.769 138.539C107.769 147 114.693 153.923 123.154 153.923C131.616 153.923 138.539 147 138.539 138.539C138.539 130.077 131.616 123.154 123.154 123.154Z" fill="white"/>
</svg>
