<svg width="168" height="155" viewBox="0 0 168 155" fill="none" xmlns="http://www.w3.org/2000/svg">
    <path d="M19.0004 19.3334C25.667 12.6667 34.0004 7.66669 44.0004 2.66669L40.667 19.3334L23.167 116.833C12.3337 104.333 4.83371 88.5 1.50038 71C-1.83295 50.1667 3.16705 32.6667 19.0004 19.3334ZM118.167 19.3334C118.167 10.1667 114 0.166687 103.167 0.166687C89.8337 0.166687 78.167 15.1667 73.167 38.5L69.0004 64.3334C73.167 67.6667 78.167 70.1667 84.8337 70.1667C103.167 69.3334 118.167 42.6667 118.167 19.3334ZM154 8.50002C154.834 11 154.834 13.5 154.834 16.8334C154.834 58.5 127.334 96 85.667 96C75.667 96 67.3337 93.5 63.167 91L53.167 141C64.0004 146.833 76.5004 151 89.0004 153.5C111.5 156.833 127.334 151.833 139.834 136.833C152.334 122.667 161.5 99.3334 166.5 71C169.834 43.5 166.5 22.6667 154 8.50002Z" fill="white"/>
</svg>
