<svg width="168" height="134" viewBox="0 0 168 134" fill="none" xmlns="http://www.w3.org/2000/svg">
    <path d="M150.667 0.333313H17.3337C8.16699 0.333313 0.666992 7.83331 0.666992 17V117C0.666992 126.167 8.16699 133.667 17.3337 133.667H150.667C159.834 133.667 167.334 126.167 167.334 117V17C167.334 7.83331 159.834 0.333313 150.667 0.333313ZM17.3337 17H67.3337V33.6666H150.667V117H17.3337V17ZM34.0003 67H50.667V50.3333H34.0003V67ZM34.0003 100.333H50.667V83.6666H34.0003V100.333ZM67.3337 67H134V50.3333H67.3337V67ZM67.3337 100.333H134V83.6666H67.3337V100.333Z" fill="white"/>
</svg>
