<svg width="151" height="151" viewBox="0 0 151 151" fill="none" xmlns="http://www.w3.org/2000/svg">
    <path d="M66.1541 15.4616C68.4618 15.4616 70.0003 17 70.0003 19.3077V34.6923H116.154V80.8462H131.539C133.846 80.8462 135.385 82.3847 135.385 84.6923C135.385 87 133.846 88.5385 131.539 88.5385H116.154V134.692H100C94.6157 120.846 81.5388 111.615 66.1541 111.615C50.7695 111.615 37.6926 120.846 32.308 134.692H16.1541V118.538C30.0003 113.154 39.2311 100.077 39.2311 84.6923C39.2311 69.3077 30.0003 56.2308 16.1541 50.8462V34.6923H62.308V19.3077C62.308 17 63.8465 15.4616 66.1541 15.4616ZM66.1541 0.0769653C55.3849 0.0769653 46.9234 8.5385 46.9234 19.3077H16.1541C7.69261 19.3077 0.769531 26.2308 0.769531 34.6923V63.9231H3.07722C14.6157 63.9231 23.8465 73.1539 23.8465 84.6923C23.8465 96.2308 14.6157 105.462 3.07722 105.462H0.769531V134.692C0.769531 143.154 7.69261 150.077 16.1541 150.077H45.3849V147.769C45.3849 136.231 54.6157 127 66.1541 127C77.6926 127 86.9234 136.231 86.9234 147.769V150.077H116.154C124.616 150.077 131.539 143.154 131.539 134.692V103.923C142.308 103.923 150.77 95.4616 150.77 84.6923C150.77 73.9231 142.308 65.4616 131.539 65.4616V34.6923C131.539 26.2308 124.616 19.3077 116.154 19.3077H85.3849C85.3849 8.5385 76.9234 0.0769653 66.1541 0.0769653Z" fill="white"/>
</svg>
