<svg width="175" height="150" viewBox="0 0 175 150" fill="none" xmlns="http://www.w3.org/2000/svg">
    <path d="M75 0C33.5833 0 0 33.5833 0 75C0 116.417 33.5833 150 75 150C91.551 150 107.445 144.576 120.559 134.707C120.704 134.598 120.719 134.385 120.59 134.257L109.012 122.679C108.909 122.575 108.746 122.562 108.626 122.645C98.7523 129.553 86.9994 133.333 75 133.333C42.75 133.333 16.6667 107.25 16.6667 75C16.6667 42.75 42.75 16.6667 75 16.6667C107.25 16.6667 133.333 42.75 133.333 75H109.058C108.79 75 108.656 75.3231 108.845 75.5121L141.455 108.121C141.572 108.238 141.762 108.238 141.879 108.121L174.488 75.5121C174.677 75.3231 174.543 75 174.276 75H150C150 33.5833 116.417 0 75 0ZM39.25 84.6667C38.5 85.25 38.25 86.25 38.6667 87.0833L46.1667 100C46.6667 101 47.6667 101 48.5 101L57.9167 97.25C59.9167 98.5833 62 99.75 64.1667 100.75L65.6667 110.667C65.8333 111.583 66.6667 112.25 67.5 112.25H82.5C83.3333 112.5 84.25 111.75 84.4167 110.833L85.9167 101C88.1667 100 90.3333 98.75 92.25 97.25L101.583 101C102.5 101.333 103.5 100.917 103.917 100L111.417 87.5C111.833 86.5 111.583 85.5 110.917 84.9167L102.583 78.75C102.833 76.25 102.833 73.75 102.583 71.25L110.917 64.9167C111.667 64.3333 111.833 63.4167 111.417 62.5L103.917 49.5833C103.417 48.75 102.5 48.4167 101.583 48.75L92.25 52.5C90.25 51.0833 88.0833 50 85.8333 49L84.4167 39.0833C84.25 38.1667 83.3333 37.5 82.5 37.5H67.8333C67 37.5 66.25 38.0833 66.0833 38.9167L64.6667 48.75C62.5 49.75 60.25 51 58.3333 52.5L48.75 49C47.8333 48.6667 46.75 49.0833 46.3333 50L38.75 62.5C38.3333 63.5 38.5833 64.5 39.25 65.0833L47.5833 71.25C47.4167 72.5 47.4167 73.75 47.5833 75C47.5 76.25 47.5 77.5 47.5833 78.75L39.25 84.9167V84.6667ZM75 87.5C68 87.5 62.5 81.8333 62.5 75C62.5 68.0833 68.0833 62.5 75 62.5C81.9167 62.5 87.5 68.0833 87.5 75C87.5 81.9167 81.9167 87.5 75 87.5Z" fill="white"/>
</svg>
