<?xml version="1.0" standalone="no"?>
<!DOCTYPE svg PUBLIC "-//W3C//DTD SVG 20010904//EN"
 "http://www.w3.org/TR/2001/REC-SVG-20010904/DTD/svg10.dtd">
<svg version="1.0" xmlns="http://www.w3.org/2000/svg"
 width="704.000000pt" height="704.000000pt" viewBox="0 0 704.000000 704.000000"
 preserveAspectRatio="xMidYMid meet">
<metadata>
Created by potrace 1.11, written by Peter Selinger 2001-2013
</metadata>
<g transform="translate(0.000000,704.000000) scale(0.100000,-0.100000)"
fill="#000000" stroke="none">
<path d="M4205 6560 c-4 -6 -10 -8 -14 -6 -9 6 -138 -20 -166 -33 -11 -5 -42
-19 -68 -30 -124 -53 -345 -242 -422 -363 -5 -8 -32 -48 -58 -87 -67 -100
-148 -256 -197 -381 -23 -58 -45 -114 -50 -125 -5 -11 -21 -58 -35 -105 -15
-47 -29 -92 -32 -100 -4 -8 -5 -18 -5 -22 1 -4 -4 -27 -12 -50 -23 -73 -50
-211 -82 -413 -2 -16 -6 -41 -9 -55 -3 -14 -7 -43 -10 -65 -2 -22 -7 -51 -10
-65 -3 -14 -7 -38 -9 -55 -2 -16 -7 -43 -10 -60 -5 -32 -33 -206 -42 -265 -3
-19 -7 -46 -10 -60 -2 -14 -7 -41 -10 -60 -3 -19 -7 -40 -9 -47 -2 -7 10 -24
28 -38 18 -14 37 -29 43 -34 5 -4 21 -14 35 -21 13 -7 26 -16 29 -19 10 -13
166 -80 220 -95 126 -35 303 -40 400 -12 30 9 62 18 71 20 66 17 309 157 309
178 0 4 5 8 11 8 9 0 184 173 214 212 99 128 163 226 220 333 20 39 40 75 45
80 5 6 9 15 10 20 2 6 13 35 27 65 51 115 104 263 129 355 4 17 8 32 9 35 11
36 25 90 29 110 25 129 31 167 41 250 21 163 20 357 0 455 -3 17 -8 39 -10 50
-10 58 -67 209 -84 225 -4 3 -13 18 -20 33 -39 75 -197 197 -272 211 -13 3
-24 5 -24 6 0 4 -48 11 -107 14 -37 2 -71 7 -77 10 -5 4 -12 2 -16 -4z"/>
<path d="M1950 6450 c-80 -47 -140 -78 -140 -72 0 4 -4 3 -8 -3 -6 -9 -53 -35
-147 -84 -16 -9 -33 -20 -37 -26 -4 -5 -8 -6 -8 -2 0 4 -15 -3 -33 -17 -19
-15 -38 -26 -44 -26 -5 0 -18 -9 -28 -20 -10 -11 -24 -20 -32 -20 -7 0 -13 -4
-13 -8 0 -5 -12 -14 -26 -21 -25 -11 -185 -127 -240 -173 -162 -137 -360 -328
-439 -423 -28 -33 -52 -62 -55 -65 -3 -3 -9 -12 -15 -21 -5 -9 -31 -47 -56
-85 -110 -164 -199 -361 -244 -539 -9 -38 -19 -77 -22 -85 -3 -8 -7 -28 -9
-44 -2 -16 -6 -41 -9 -55 -6 -32 -18 -118 -19 -146 -1 -11 -4 -24 -7 -30 -6
-12 -2 -376 5 -425 2 -19 7 -61 11 -92 6 -54 19 -136 29 -188 3 -14 11 -50 16
-80 6 -30 15 -66 20 -80 5 -14 12 -36 14 -50 15 -73 84 -294 119 -380 6 -14
11 -27 12 -30 14 -58 193 -443 225 -485 4 -5 22 -37 40 -70 101 -185 391 -573
379 -508 -1 4 0 10 1 13 1 3 4 16 5 30 4 27 9 56 19 108 3 17 8 46 11 62 8 46
14 83 20 110 3 14 10 52 15 85 5 33 12 71 15 85 3 14 8 41 11 60 2 19 6 42 9
50 2 8 7 31 10 50 3 19 7 46 10 60 3 14 7 39 10 55 3 17 7 41 10 55 9 46 25
135 30 175 3 22 8 47 11 55 3 8 8 29 10 45 9 68 13 94 28 170 8 44 18 96 21
115 3 19 12 71 21 115 8 44 17 96 20 115 3 19 8 44 11 55 4 11 7 31 8 45 1 14
5 39 8 55 4 17 9 46 12 65 3 19 8 42 10 50 3 8 7 31 9 50 3 19 9 55 15 80 5
25 12 63 15 85 4 23 8 52 11 65 3 14 9 51 15 82 6 32 12 70 15 85 3 16 8 44
11 63 3 19 7 42 9 50 2 8 7 31 10 50 3 19 7 46 10 60 3 14 7 39 10 55 3 17 7
41 10 55 3 14 8 39 10 55 12 66 25 141 30 165 6 30 19 103 50 280 22 126 23
135 25 135 1 0 3 11 5 25 2 14 6 41 9 60 3 19 14 80 24 135 11 55 19 107 20
115 0 8 7 49 17 90 22 101 23 103 29 141 3 19 12 67 20 106 19 90 28 132 31
158 2 11 4 20 5 20 1 0 4 14 6 30 2 17 9 49 14 72 25 106 24 123 -10 103z"/>
<path d="M6210 6226 c0 -2 5 -17 11 -32 5 -16 12 -73 14 -129 3 -55 5 -102 6
-105 1 -3 1 -8 1 -11 -1 -4 -4 -78 -7 -165 -6 -159 -9 -204 -19 -279 -3 -22
-8 -62 -12 -90 -3 -27 -17 -106 -31 -175 -31 -156 -31 -158 -38 -180 -3 -10
-8 -28 -10 -39 -12 -61 -99 -329 -121 -373 -8 -15 -15 -31 -15 -35 -2 -10 -12
-35 -38 -96 -11 -26 -21 -49 -21 -52 -2 -12 -118 -229 -158 -295 -92 -153
-201 -303 -311 -429 -56 -65 -206 -215 -240 -241 -11 -9 -35 -29 -53 -45 -121
-107 -284 -216 -453 -301 -49 -25 -97 -49 -105 -54 -52 -29 -280 -113 -280
-103 0 3 -6 1 -13 -5 -7 -6 -24 -13 -37 -16 -14 -3 -63 -15 -110 -26 -47 -12
-96 -23 -110 -25 -14 -2 -52 -9 -85 -14 -101 -16 -150 -21 -260 -26 -59 -3
-111 -7 -116 -10 -5 -4 -9 -3 -9 2 0 4 -46 8 -103 9 -97 1 -205 10 -237 19 -8
3 -29 7 -45 9 -17 3 -41 7 -55 11 -14 3 -43 8 -65 11 -56 8 -205 59 -292 99
-63 29 -73 31 -77 17 -4 -16 -21 -100 -30 -152 -2 -14 -7 -36 -10 -50 -3 -14
-8 -37 -11 -52 -6 -32 -8 -42 -42 -208 -14 -69 -27 -138 -30 -155 -3 -16 -11
-56 -18 -87 -7 -31 -10 -59 -7 -62 3 -3 1 -6 -4 -6 -5 0 -9 -10 -10 -22 -1
-29 -13 -93 -24 -138 -5 -19 -12 -52 -16 -74 -3 -21 -8 -47 -10 -57 -2 -11 -6
-27 -8 -37 -2 -11 -16 -79 -31 -153 -15 -74 -29 -143 -31 -154 -16 -79 -44
-224 -48 -245 -2 -14 -11 -56 -19 -95 -9 -38 -18 -89 -22 -112 l-6 -42 53 -28
c51 -26 261 -125 303 -142 11 -5 43 -18 70 -30 28 -12 57 -23 65 -25 8 -1 32
-10 54 -19 21 -9 42 -17 47 -17 5 0 17 -4 27 -10 22 -13 240 -83 272 -88 13
-2 30 -8 37 -14 8 -6 16 -8 19 -5 4 3 28 -3 54 -13 26 -10 50 -16 54 -13 3 3
11 1 18 -5 7 -5 29 -13 48 -16 44 -7 142 -30 160 -36 3 -1 9 -2 14 -1 5 1 16
-1 25 -5 9 -4 23 -8 31 -9 37 -6 119 -16 160 -20 25 -3 70 -8 100 -11 71 -8
378 -8 453 -1 90 9 160 19 217 31 139 30 140 30 162 40 9 4 22 9 30 10 35 7
74 19 83 26 6 4 21 11 35 15 41 12 150 65 225 109 170 98 366 268 515 446 30
36 57 67 60 70 33 29 195 268 272 400 50 85 162 297 163 310 1 3 10 23 22 45
11 22 21 42 20 45 0 3 10 28 22 55 47 103 128 310 134 340 2 6 5 15 8 20 4 6
16 42 28 80 13 39 25 77 28 85 7 16 11 30 17 58 3 9 5 17 6 17 1 0 3 7 5 15 2
8 16 53 30 100 14 47 27 94 30 105 2 11 13 50 24 88 11 37 17 67 14 67 -3 0 0
7 7 15 7 8 10 15 7 15 -3 0 3 31 13 69 10 39 15 72 12 75 -3 4 -1 6 4 6 5 0
10 8 10 18 1 9 13 76 28 147 15 72 29 145 32 164 2 18 6 37 9 41 5 8 14 66 20
135 2 22 7 65 10 95 38 363 38 769 0 1045 -3 22 -8 58 -10 80 -12 93 -72 354
-95 410 -5 11 -14 38 -21 60 -6 22 -14 45 -18 50 -3 6 -6 15 -7 21 -4 26 -116
253 -145 296 -11 14 -19 31 -19 37 0 6 -4 11 -10 11 -5 0 -10 5 -10 10 0 9
-35 65 -50 80 -3 3 -25 31 -49 63 -41 54 -61 75 -61 63z"/>
</g>
</svg>
