<?xml version="1.0" encoding="UTF-8"?>
<svg id="Layer_1" xmlns="http://www.w3.org/2000/svg" viewBox="0 0 152.84 141.8">
  <defs>
    <style>
      .cls-1 {
        fill: #062633;
      }
    </style>
  </defs>
  <path class="cls-1" d="M94.6,52.22c4.14-1.95,7.7-4.96,10.32-8.7,2.59-3.87,4.28-8.27,4.95-12.87.82-4.93.54-9.23-.82-12.88-1.34-3.64-3.99-6.66-7.42-8.48-3.56-2.06-8.35-3.09-14.36-3.09h-21.03l-8.24,49.12h21.09c6.05,0,11.22-1.03,15.52-3.09Z"/>
  <path class="cls-1" d="M32.49,8.85C-2.41,20.72-11.38,65.91,16.34,90.2l3.94,3.45L34.52,8.16l-2.03.69Z"/>
  <path class="cls-1" d="M137.8,0c.87,1.52,1.63,3.12,2.26,4.77,2.92,7.48,3.6,16.11,2.02,25.89-1.46,9.38-5.14,18.28-10.72,25.97-5.49,7.48-12.79,13.47-21.21,17.4-8.69,4.16-18.73,6.24-30.13,6.24h-26.2l-6.25,37.28,14.09,12.35c27.72,24.29,71.34,9.46,78.52-26.69l11.73-59.07c3.46-17.41-2.79-33.47-14.09-44.13Z"/>
</svg>